<?xml version="1.0" standalone="no"?>
<!DOCTYPE svg PUBLIC "-//W3C//DTD SVG 20010904//EN"
 "http://www.w3.org/TR/2001/REC-SVG-20010904/DTD/svg10.dtd">
<svg version="1.0" xmlns="http://www.w3.org/2000/svg"
 width="508.000000pt" height="508.000000pt" viewBox="0 0 508.000000 508.000000"
 preserveAspectRatio="xMidYMid meet">
<metadata>
Created by potrace 1.14, written by Peter Selinger 2001-2017
</metadata>
<g transform="translate(0.000000,508.000000) scale(0.100000,-0.100000)"
fill="#000000" stroke="none">
<path d="M2261 5014 c-335 -51 -551 -143 -796 -340 -223 -179 -352 -367 -443
-648 -43 -131 -56 -179 -83 -311 -20 -99 -38 -211 -44 -275 -4 -36 -9 -81 -11
-100 -9 -73 -16 -310 -10 -333 7 -30 63 -67 100 -67 14 0 26 -3 27 -7 0 -5 2
-332 3 -728 1 -561 5 -725 14 -743 17 -30 51 -42 118 -42 30 0 54 -3 55 -7 0
-5 2 -242 3 -528 3 -469 5 -525 21 -570 54 -152 117 -204 253 -207 86 -3 142
22 277 124 148 112 244 210 310 317 21 34 43 61 50 61 7 0 28 -11 47 -24 103
-70 343 -94 508 -51 75 19 181 70 217 102 13 13 32 23 41 23 61 -1 366 -104
400 -135 11 -10 9 -18 -12 -42 -30 -36 -41 -78 -32 -126 8 -43 26 -63 101
-114 59 -40 154 -113 228 -176 45 -38 61 -45 105 -46 69 -2 125 60 116 130 -4
32 -1 35 38 54 24 11 49 31 55 45 9 18 13 97 13 275 0 231 -2 252 -20 282 -20
34 -75 63 -116 63 l-24 0 0 275 0 275 145 0 c159 0 187 8 199 56 4 14 7 347 7
740 1 527 4 716 13 719 6 2 28 6 48 10 27 4 42 14 57 38 19 31 20 45 15 192
-3 87 -7 162 -9 166 -3 3 -7 31 -10 60 -9 79 -25 203 -29 225 -112 547 -229
781 -512 1019 -108 91 -111 94 -199 150 -178 115 -336 172 -618 221 -69 12
-532 11 -616 -2z m1482 -4902 c-4 -10 -2 -13 5 -8 16 9 15 -7 0 -22 -14 -14
-64 -16 -73 -3 -3 5 8 19 24 31 20 14 28 27 25 38 -5 15 -4 15 9 -1 9 -11 13
-26 10 -35z"/>
</g>
</svg>
